SplineFontDB: 3.2
FontName: Untitled1
FullName: Untitled1
FamilyName: Untitled1
Weight: Regular
Copyright: Copyright (c) 2025, Bastien
UComments: "2025-9-5: Created with FontForge (http://fontforge.org)"
Version: 001.000
ItalicAngle: 0
UnderlinePosition: -100
UnderlineWidth: 50
Ascent: 800
Descent: 200
InvalidEm: 0
LayerCount: 2
Layer: 0 0 "Arri+AOgA-re" 1
Layer: 1 0 "Avant" 0
XUID: [1021 494 -1209145333 12704294]
OS2Version: 0
OS2_WeightWidthSlopeOnly: 0
OS2_UseTypoMetrics: 1
CreationTime: 1757094485
ModificationTime: 1757144210
OS2TypoAscent: 0
OS2TypoAOffset: 1
OS2TypoDescent: 0
OS2TypoDOffset: 1
OS2TypoLinegap: 0
OS2WinAscent: 0
OS2WinAOffset: 1
OS2WinDescent: 0
OS2WinDOffset: 1
HheadAscent: 0
HheadAOffset: 1
HheadDescent: 0
HheadDOffset: 1
OS2Vendor: 'PfEd'
DEI: 91125
Encoding: ISO8859-1
Compacted: 1
UnicodeInterp: none
NameList: AGL For New Fonts
DisplaySize: -48
AntiAlias: 1
FitToEm: 0
WinInfo: 0 18 14
Grid
-1024 -63.99609375 m 0
 2048 -63.99609375 l 1024
-1024 -34 m 0
 2048 -34 l 1024
-1024 934 m 0
 2048 934 l 1024
-1024 772 m 0
 2048 772 l 1024
-1024 881 m 0
 2048 881 l 1024
  Named: "Uppercase_Accent_Y"
-1020 687 m 0
 2052 687 l 1024
  Named: "Lowercase_Accent_Y"
-1024 929 m 0
 2048 929 l 1024
-1024 -192 m 0
 2048 -192 l 1024
2048 708 m 0
 -1024 708 l 0
 2048 708 l 0
-1024 716 m 0
 2048 716 l 1024
-1024 527 m 0
 2048 527 l 1024
-1024 -8 m 0
 2048 -8 l 1024
-1018 535 m 0
 2054 535 l 1024
EndSplineSet
BeginChars: 256 95

StartChar: exclam
Encoding: 33 33 1
Width: 295
VWidth: 980
Flags: HW
LayerCount: 2
Fore
SplineSet
138 708 m 1
 166 708 l 1
 165 234 l 1
 139 234 l 1
 138 708 l 1
170 18 m 0
 170 13 168 9 165 6 c 0
 162 3 157 0 152 0 c 0
 147 0 142 3 139 6 c 0
 136 9 134 13 134 18 c 0
 134 23 136 28 139 31 c 0
 142 34 147 36 152 36 c 0
 157 36 162 34 165 31 c 0
 168 28 170 23 170 18 c 0
EndSplineSet
EndChar

StartChar: quotedbl
Encoding: 34 34 2
Width: 374
VWidth: 980
Flags: HW
LayerCount: 2
Fore
SplineSet
184 757 m 1
 212 757 l 1
 212 566 l 1
 184 566 l 1
 184 757 l 1
200 566 m 1
 172 566 l 1
 172 757 l 1
 200 757 l 1
 200 566 l 1
EndSplineSet
EndChar

StartChar: numbersign
Encoding: 35 35 3
Width: 591
VWidth: 980
Flags: HW
LayerCount: 2
Fore
SplineSet
97 505 m 1
 97 526 l 1
 510 526 l 1
 510 505 l 1
 97 505 l 1
97 242 m 1
 97 263 l 1
 510 263 l 1
 510 242 l 1
 97 242 l 1
97 0 m 1
 243 708 l 1
 272 708 l 1
 126 0 l 1
 97 0 l 1
335 0 m 1
 481 708 l 1
 510 708 l 1
 364 0 l 1
 335 0 l 1
EndSplineSet
EndChar

StartChar: dollar
Encoding: 36 36 4
Width: 562
VWidth: 980
Flags: HW
LayerCount: 2
Fore
SplineSet
294 671 m 0
 380 671 462 635 519 571 c 1
 508 554 l 1
 454 615 376 651 294 651 c 0
 178 651 89 607 89 502 c 0
 89 417 147 371 234 353 c 2
 347 329 l 2
 447 308 515 255 515 156 c 0
 515 36 415 -17 283 -17 c 0
 198 -17 118 19 62 83 c 1
 73 100 l 1
 125 39 202 3 283 3 c 0
 400 3 488 50 488 156 c 0
 488 243 431 290 343 309 c 2
 230 333 l 2
 130 354 62 405 62 502 c 0
 62 621 162 671 294 671 c 0
281 757 m 1
 308 757 l 1
 297 -103 l 1
 269 -103 l 1
 281 757 l 1
EndSplineSet
EndChar

StartChar: percent
Encoding: 37 37 5
Width: 775
VWidth: 980
Flags: HW
LayerCount: 2
Fore
SplineSet
164 0 m 1
 601 708 l 1
 630 708 l 1
 193 0 l 1
 164 0 l 1
193 716 m 1
 292 716 352 651 352 550 c 0
 352 449 292 384 193 384 c 0
 94 384 34 449 34 550 c 0
 34 651 94 716 193 716 c 1
 193 695 l 1
 110 695 63 636 63 550 c 0
 63 464 110 405 193 405 c 0
 276 405 323 464 323 550 c 0
 323 636 276 695 193 695 c 1
 193 716 l 1
601 -8 m 1
 502 -8 442 58 442 159 c 0
 442 260 502 325 601 325 c 0
 700 325 760 260 760 159 c 0
 760 58 700 -8 601 -8 c 1
 601 14 l 1
 684 14 731 73 731 159 c 0
 731 245 684 304 601 304 c 0
 518 304 471 245 471 159 c 0
 471 73 518 14 601 14 c 1
 601 -8 l 1
EndSplineSet
EndChar

StartChar: ampersand
Encoding: 38 38 6
Width: 609
VWidth: 980
Flags: W
HStem: -8 22<169.881 308.507> 0 21G<501.304 539> 358 24<196 430 459 559> 358 10<181.465 187.6 430 459> 695 21<182.04 313.218>
VStem: 33 28<110.444 251.741> 45 29<464.121 601.014> 430 29<184 368>
LayerCount: 2
Fore
SplineSet
248 716 m 0x2b
 315 716 379 688 424 638 c 1
 412 621 l 1
 371 668 311 695 248 695 c 0
 142 695 74 631 74 526 c 0
 74 454 126 396 196 382 c 1
 559 382 l 1
 559 358 l 1
 196 358 l 1
 175 369 l 5
 100 384 45 449 45 526 c 0
 45 645 126 716 248 716 c 0x2b
175 369 m 5
 196 358 l 1
 117 338 61 266 61 184 c 0
 61 83 126 14 239 14 c 0
 355 14 418 86 430 184 c 1
 454 179 l 1
 437 71 366 -8 239 -8 c 0
 110 -8 33 69 33 184 c 0xad
 33 271 91 347 175 369 c 5
430 368 m 1x59
 459 368 l 1
 459 184 l 1
 539 0 l 1
 510 0 l 1
 430 184 l 1
 430 368 l 1x59
EndSplineSet
EndChar

StartChar: quotesingle
Encoding: 39 39 7
Width: 144
VWidth: 980
Flags: HW
LayerCount: 2
Fore
SplineSet
60 784 m 1
 88 784 l 1
 87 587 l 1
 62 587 l 1
 60 784 l 1
EndSplineSet
EndChar

StartChar: parenleft
Encoding: 40 40 8
Width: 327
VWidth: 980
Flags: HW
LayerCount: 2
Fore
SplineSet
277 757 m 1
 297 757 l 1
 183 642 120 488 120 326 c 0
 120 164 183 9 297 -106 c 1
 277 -106 l 1
 159 6 92 163 92 326 c 0
 92 489 159 645 277 757 c 1
EndSplineSet
EndChar

StartChar: parenright
Encoding: 41 41 9
Width: 327
VWidth: 980
Flags: HW
LayerCount: 2
Fore
SplineSet
39 757 m 1
 59 757 l 1
 177 645 244 489 244 326 c 0
 244 163 177 6 59 -106 c 1
 39 -106 l 1
 153 9 217 164 217 326 c 0
 217 488 153 642 39 757 c 1
EndSplineSet
EndChar

StartChar: asterisk
Encoding: 42 42 10
Width: 523
VWidth: 980
Flags: HW
LayerCount: 2
Fore
SplineSet
265 577 m 1
 79 636 l 1
 87 662 l 1
 272 601 l 1
 265 577 l 1
279 581 m 1
 165 423 l 1
 143 439 l 1
 258 596 l 1
 279 581 l 1
279 596 m 1
 395 439 l 1
 372 423 l 1
 258 581 l 1
 279 596 l 1
265 601 m 1
 450 662 l 1
 458 636 l 1
 272 577 l 1
 265 601 l 1
256 589 m 1
 255 784 l 1
 282 784 l 1
 281 589 l 1
 256 589 l 1
EndSplineSet
EndChar

StartChar: plus
Encoding: 43 43 11
Width: 591
VWidth: 980
Flags: HW
LayerCount: 2
Fore
SplineSet
76 273 m 1
 76 294 l 1
 531 294 l 1
 531 273 l 1
 76 273 l 1
289 56 m 1
 289 511 l 1
 318 511 l 1
 318 56 l 1
 289 56 l 1
EndSplineSet
EndChar

StartChar: comma
Encoding: 44 44 12
Width: 226
VWidth: 980
Flags: HW
LayerCount: 2
Fore
SplineSet
139 102 m 1
 168 102 l 1
 91 -101 l 1
 65 -101 l 1
 139 102 l 1
EndSplineSet
EndChar

StartChar: hyphen
Encoding: 45 45 13
Width: 591
VWidth: 980
Flags: HW
LayerCount: 2
Fore
SplineSet
76 273 m 1
 76 294 l 1
 531 294 l 1
 531 273 l 1
 76 273 l 1
EndSplineSet
EndChar

StartChar: period
Encoding: 46 46 14
Width: 245
VWidth: 980
Flags: HW
LayerCount: 2
Fore
SplineSet
145 10 m 0
 145 5 142 1 139 -2 c 0
 136 -5 132 -8 127 -8 c 0
 122 -8 117 -5 114 -2 c 0
 111 1 109 5 109 10 c 0
 109 15 111 20 114 23 c 0
 117 26 122 28 127 28 c 0
 132 28 136 26 139 23 c 0
 142 20 145 15 145 10 c 0
EndSplineSet
EndChar

StartChar: slash
Encoding: 47 47 15
Width: 409
VWidth: 980
Flags: HW
LayerCount: 2
Fore
SplineSet
351 716 m 1
 379 716 l 1
 69 -8 l 1
 41 -8 l 1
 351 716 l 1
EndSplineSet
EndChar

StartChar: zero
Encoding: 48 48 16
Width: 542
VWidth: 980
Flags: HW
LayerCount: 2
Fore
SplineSet
278 695 m 0
 120 695 94 520 94 354 c 0
 94 188 120 14 278 14 c 0
 436 14 463 188 463 354 c 0
 463 520 436 695 278 695 c 0
278 716 m 0
 450 716 492 551 492 354 c 0
 492 157 450 -8 278 -8 c 0
 106 -8 65 157 65 354 c 0
 65 551 106 716 278 716 c 0
EndSplineSet
EndChar

StartChar: one
Encoding: 49 49 17
Width: 542
VWidth: 980
Flags: HW
HStem: 0 23<97 477> 688 20G<240.217 309>
VStem: 280 29<0 682>
LayerCount: 2
Fore
SplineSet
280 708 m 1
 309 708 l 1
 309 23 l 1
 477 23 l 1
 477 0 l 1
 309 0 l 1
 280 0 l 1
 97 0 l 1
 97 23 l 1
 280 23 l 1
 280 682 l 1
 97 590 l 1
 97 616 l 1
 280 708 l 1
EndSplineSet
EndChar

StartChar: two
Encoding: 50 50 18
Width: 542
VWidth: 980
Flags: HW
LayerCount: 2
Fore
SplineSet
70 613 m 1
 107 678 181 716 256 716 c 0
 384 716 459 632 459 503 c 0
 459 415 405 340 344 276 c 2
 100.3866171 22 l 1
 459 22 l 1
 459 0 l 1
 65 0 l 1
 65 22 l 1
 323 291 l 2
 380 350 431 421 431 503 c 0
 431 618 368 695 256 695 c 0
 185 695 119 656 87 598 c 1
 70 613 l 1
EndSplineSet
EndChar

StartChar: three
Encoding: 51 51 19
Width: 542
VWidth: 980
Flags: HW
HStem: -8 22<188.496 337.073> 401 21<206 335.468> 683 25<73 416>
VStem: 468 29<125.569 292.632>
LayerCount: 2
Fore
SplineSet
73 708 m 1
 459 708 l 1
 459 692 l 1
 206 422 l 1
 254 422 l 2
 413 422 497 353 497 207 c 0
 497 70 404 -8 262 -8 c 0
 186 -8 105 25 66 91 c 1
 84 105 l 1
 120 42 190 14 262 14 c 0
 388 14 468 85 468 207 c 0
 468 340 394 401 249 401 c 2
 183 401 l 1
 176 422 l 1
 416 683 l 1
 73 683 l 1
 73 708 l 1
EndSplineSet
EndChar

StartChar: four
Encoding: 52 52 20
Width: 542
VWidth: 980
Flags: HW
LayerCount: 2
Fore
SplineSet
361 348 m 1
 390 358 l 1
 390 192 l 1
 516 192 l 1
 516 167 l 1
 390 167 l 1
 390 0 l 1
 361 0 l 1
 361 167 l 1
 65 167 l 1
 65 192 l 1
 331 708 l 1
 361 708 l 5
 96 192 l 5
 361 192 l 1
 361 348 l 1
EndSplineSet
EndChar

StartChar: five
Encoding: 53 53 21
Width: 542
VWidth: 980
Flags: W
HStem: -7 22<189.649 328.949> 436 24<213.421 352.126> 684 24<125 465>
VStem: 97 28<340 366.036 375.739 684> 463 29<144.209 321.126>
LayerCount: 2
Fore
SplineSet
109 340 m 1
 97 340 l 1
 97 687 l 1
 97 708 l 1
 126 708 l 1
 465 708 l 1
 465 684 l 1
 125 684 l 1
 125 375.739257812 l 1
 146 428 211.790566022 460 284 460 c 0
 415 460 492 369 492 234 c 0
 492 86 405 -7 257 -7 c 0
 185 -7 111 24 65 79 c 1
 83 98 l 1
 125 45 190 15 257 15 c 0
 389 15 463 100 463 234 c 0
 463 355 400 436 284 436 c 0
 216 436 151 407 124 340 c 5
 109 340 l 1
EndSplineSet
EndChar

StartChar: six
Encoding: 54 54 22
Width: 542
VWidth: 980
Flags: W
HStem: -7 23<213.648 353.466> 437 23<221.042 358.161> 695 21<242.806 374.536>
VStem: 65 29<160.929 491.02> 487 29<141.486 312.059>
LayerCount: 2
Fore
SplineSet
487 629 m 1
 472 615 l 1
 422 673 370 695 309 695 c 0
 134.505859375 695 94.1672996463 538 94.1672996463 334.395178793 c 1
 125.331104031 412.358698796 193.467703469 460.000000009 291 460 c 0
 431 460 516 368 516 226 c 0
 516 82 427 -7 282 -7 c 0
 124 -7 65 96 65 312 c 0
 65 544 114 716 309 716 c 0
 374 716 437 690 487 629 c 1
94 226 m 0
 94 109 159 16 278 16 c 4
 407 16 487 96 487 226 c 0
 487 353 414 437 290 437 c 0
 166 437 94 353 94 226 c 0
EndSplineSet
EndChar

StartChar: seven
Encoding: 55 55 23
Width: 542
VWidth: 980
Flags: HW
LayerCount: 2
Fore
SplineSet
65 687 m 1
 65 708 l 1
 492 708 l 1
 492 687 l 1
 195 0 l 1
 167 0 l 1
 463 687 l 1
 65 687 l 1
EndSplineSet
EndChar

StartChar: eight
Encoding: 56 56 24
Width: 542
VWidth: 980
Flags: HW
LayerCount: 2
Fore
SplineSet
278 695 m 4
 168 695 108 633 108 537 c 0
 108 441 183 378 278 378 c 0
 373 378 449 441 449 537 c 0
 449 633 388 695 278 695 c 4
278 716 m 0
 400 716 477 648 477 537 c 0
 477 452.22265625 426.571167857 392.392168204 350.336693815 369.412014449 c 1
 436.877797813 347.273186384 491.999999941 283.109895075 492 186 c 0
 492 63 405 -8 278 -8 c 0
 151 -8 65 63 65 186 c 0
 65 283.088038562 119.464089084 347.244302328 205.712938133 369.397059642 c 1
 129.453325134 392.366202856 79 452.204101562 79 537 c 0
 79 648 156 716 278 716 c 0
278 359 m 0
 167 359 94 294 94 186 c 0
 94 78 167 14 278 14 c 0
 389 14 463 78 463 186 c 0
 463 294 389 359 278 359 c 0
EndSplineSet
EndChar

StartChar: nine
Encoding: 57 57 25
Width: 542
VWidth: 980
Flags: W
HStem: -8 25<173.369 322.751> 248 21<213.082 339.961> 695 21<214.827 339.027>
VStem: 65 29<388.723 569.793> 463 29<224.939 552.254>
LayerCount: 2
Fore
SplineSet
79 88 m 1
 125 40 184 17 250 17 c 0
 424.71484375 17 459.147460938 176.279296875 464.778320312 367.966796875 c 1
 436 296 358.509213445 248.000000005 278 248 c 0
 144 248 65 340 65 478 c 0
 65 619 142 716 278 716 c 0
 435 716 492 613 492 401 c 0
 492 178 444 -8 250 -8 c 0
 180 -8 113 21 64 71 c 1
 79 88 l 1
463 478 m 0
 463 605 398 695 278 695 c 0
 158 695 94 605 94 478 c 0
 94 354 159 269 278 269 c 0
 397 269 463 354 463 478 c 0
EndSplineSet
EndChar

StartChar: colon
Encoding: 58 58 26
Width: 271
VWidth: 980
Flags: W
HStem: -8 38<120.006 157.994> 497 38<120.006 157.994>
VStem: 120 38<-7.99416 29.9942 497.006 534.994>
LayerCount: 2
Fore
SplineSet
139 30 m 24
 150 30 158 22 158 11 c 24
 158 0 150 -8 139 -8 c 24
 128 -8 120 0 120 11 c 24
 120 22 128 30 139 30 c 24
139 535 m 24
 150 535 158 527 158 516 c 24
 158 505 150 497 139 497 c 24
 128 497 120 505 120 516 c 24
 120 527 128 535 139 535 c 24
EndSplineSet
EndChar

StartChar: semicolon
Encoding: 59 59 27
Width: 271
VWidth: 980
Flags: HW
LayerCount: 2
Fore
SplineSet
157 10 m 0
 157 5 155 1 152 -2 c 0
 149 -5 144 -8 139 -8 c 0
 134 -8 130 -5 127 -2 c 0
 124 1 121 5 121 10 c 0
 121 15 124 20 127 23 c 0
 130 26 134 28 139 28 c 0
 144 28 149 26 152 23 c 0
 155 20 157 15 157 10 c 0
185 102 m 1
 214 102 l 1
 91 -101 l 1
 65 -101 l 1
 185 102 l 1
EndSplineSet
EndChar

StartChar: less
Encoding: 60 60 28
Width: 552
VWidth: 980
Flags: HW
LayerCount: 2
Fore
SplineSet
65 253 m 1
 65 274 l 1
 502 530 l 1
 502 502 l 1
 65 253 l 1
65 253 m 1
 65 274 l 1
 502 25 l 1
 502 -4 l 1
 65 253 l 1
EndSplineSet
EndChar

StartChar: equal
Encoding: 61 61 29
Width: 591
VWidth: 980
Flags: HW
LayerCount: 2
Fore
SplineSet
97 292 m 1
 97 313 l 1
 510 313 l 1
 510 292 l 1
 97 292 l 1
510 235 m 1
 510 213 l 1
 97 213 l 1
 97 235 l 1
 510 235 l 1
EndSplineSet
EndChar

StartChar: greater
Encoding: 62 62 30
Width: 552
VWidth: 980
Flags: HW
LayerCount: 2
Fore
SplineSet
502 253 m 1
 65 502 l 1
 65 530 l 1
 502 274 l 1
 502 253 l 1
502 253 m 1
 65 -4 l 1
 65 25 l 1
 502 274 l 1
 502 253 l 1
EndSplineSet
EndChar

StartChar: question
Encoding: 63 63 31
Width: 507
VWidth: 980
Flags: HW
LayerCount: 2
Fore
SplineSet
46 611 m 1
 97 678 177 716 261 716 c 0
 379 716 456 646 456 529 c 0
 456 433 392 388 326 319 c 0
 279 269 239 210 239 142 c 1
 210 142 l 1
 210 219 261 282 315 337 c 0
 369 393 428 452 428 529 c 0
 428 631 363 695 261 695 c 0
 181 695 106 657 58 593 c 1
 46 611 l 1
242 10 m 0
 242 5 240 1 237 -2 c 0
 234 -5 229 -8 224 -8 c 0
 219 -8 214 -5 211 -2 c 0
 208 1 206 5 206 10 c 0
 206 15 208 20 211 23 c 0
 214 26 219 28 224 28 c 0
 229 28 234 26 237 23 c 0
 240 20 242 15 242 10 c 0
EndSplineSet
EndChar

StartChar: at
Encoding: 64 64 32
Width: 890
VWidth: 980
Flags: HW
LayerCount: 2
Fore
SplineSet
639 -9 m 1
 639 -30 l 1
 580 -48 518 -58 456 -58 c 0
 211 -58 62 103 62 351 c 0
 62 599 211 759 456 759 c 0
 705 759 851 589 851 334 c 0
 851 258 815 187 753 142 c 1
 742 141 l 1
 576 200 l 1
 585 219 l 1
 746 161 l 1
 795 205 824 268 824 334 c 0
 824 575 689 739 456 739 c 0
 226 739 89 585 89 351 c 0
 89 117 226 -37 456 -37 c 0
 518 -37 580 -27 639 -9 c 1
585 536 m 1
 605 536 l 1
 596 200 l 1
 576 200 l 1
 585 536 l 1
583 452 m 1
 598 463 l 1
 552 512 488 540 420 540 c 0
 132 540 0 305 0 -9 c 0
 0 -395 271 141 420 141 c 0
 478 141 533 162 576 200 c 1
 580 218 l 1
 535 181 478 161 420 161 c 0
 275 161 0 -422 0 -9 c 0
 0 296 137 520 420 520 c 0
 481 520 540 495 583 452 c 1
EndSplineSet
EndChar

StartChar: A
Encoding: 65 65 33
Width: 611
VWidth: 980
Flags: HW
LayerCount: 2
Fore
SplineSet
314 708 m 1
 328 708 l 1
 587 0 l 1
 558 0 l 1
 301 708 l 1
 314 708 l 1
299 708 m 1
 327 708 l 1
 69 0 l 1
 41 0 l 1
 299 708 l 1
149 223 m 1
 478 223 l 1
 478 203 l 1
 149 203 l 1
 149 223 l 1
EndSplineSet
EndChar

StartChar: B
Encoding: 66 66 34
Width: 601
VWidth: 980
Flags: HW
LayerCount: 2
Fore
SplineSet
97 708 m 1
 330 708 l 2
 455 708 546 652 546 536 c 0
 546 422 454 368 330 368 c 1
 97 377 l 1
 97 387 l 1
 330 387 l 2
 438 387 517 436 517 537 c 0
 517 638 438 687 330 687 c 2
 97 687 l 1
 97 708 l 1
97 377 m 1
 330 377 l 2
 469 377 577 328 577 203 c 0
 577 69 473 0 330 0 c 2
 97 0 l 1
 112 22 l 1
 330 22 l 2
 455 22 548 78 548 194 c 0
 548 310 455 366 330 366 c 2
 97 366 l 1
 97 377 l 1
97 708 m 1
 126 708 l 1
 126 0 l 1
 97 0 l 1
 97 708 l 1
EndSplineSet
EndChar

StartChar: C
Encoding: 67 67 35
Width: 596
VWidth: 980
Flags: HW
HStem: -8 21<279 427> 695 21<279 426>
VStem: 65 29<226 482>
LayerCount: 2
Fore
SplineSet
557 600 m 1
 507 660 433 695 355 695 c 0
 176 695 94 550 94 355 c 0
 94 160 176 14 355 14 c 0
 443 14 504 44 557 116 c 1
 569 98 l 1
 518 31 439 -8 355 -8 c 0
 161 -8 65 146 65 355 c 0
 65 564 161 716 355 716 c 0
 446 716 509 687 569 617 c 1
 557 600 l 1
EndSplineSet
EndChar

StartChar: D
Encoding: 68 68 36
Width: 611
VWidth: 980
Flags: HW
LayerCount: 2
Fore
SplineSet
97 687 m 1
 97 708 l 1
 282 708 l 2
 468 708 562 563 562 364 c 0
 562 156 474 0 282 0 c 2
 97 0 l 1
 97 22 l 1
 282 22 l 2
 458 22 534 170 534 364 c 0
 534 549 453 687 282 687 c 2
 97 687 l 1
97 708 m 1
 126 708 l 1
 126 0 l 1
 97 0 l 1
 97 708 l 1
EndSplineSet
EndChar

StartChar: E
Encoding: 69 69 37
Width: 542
VWidth: 980
Flags: HW
LayerCount: 2
Fore
SplineSet
97 708 m 1
 126 708 l 1
 126 0 l 1
 97 0 l 1
 97 708 l 1
112 687 m 1
 112 708 l 1
 501 708 l 1
 501 687 l 1
 112 687 l 1
112 344 m 1
 112 365 l 1
 445 365 l 1
 445 344 l 1
 112 344 l 1
112 0 m 1
 112 22 l 1
 529 22 l 1
 529 0 l 1
 112 0 l 1
EndSplineSet
EndChar

StartChar: F
Encoding: 70 70 38
Width: 538
VWidth: 980
Flags: HW
LayerCount: 2
Fore
SplineSet
97 708 m 1
 126 708 l 1
 126 0 l 1
 97 0 l 1
 97 708 l 1
112 687 m 1
 112 708 l 1
 496 708 l 1
 496 687 l 1
 112 687 l 1
112 344 m 1
 112 365 l 1
 441 365 l 1
 441 344 l 1
 112 344 l 1
EndSplineSet
EndChar

StartChar: G
Encoding: 71 71 39
Width: 640
VWidth: 980
Flags: HW
LayerCount: 2
Fore
SplineSet
581 601 m 1
 524 661 445 695 362 695 c 0
 181 695 94 550 94 354 c 0
 94 162 183 22 362 22 c 0
 441 22 519 36 593 64 c 1
 593 43 l 1
 519 15 441 0 362 0 c 0
 167 0 65 147 65 354 c 0
 65 564 165 716 362 716 c 0
 449 716 532 681 593 619 c 1
 581 601 l 1
564 43 m 1
 564 354 l 1
 593 354 l 1
 593 43 l 1
 564 43 l 1
593 365 m 1
 593 344 l 1
 329 344 l 1
 329 365 l 1
 593 365 l 1
EndSplineSet
EndChar

StartChar: H
Encoding: 72 72 40
Width: 601
VWidth: 980
Flags: HW
LayerCount: 2
Fore
SplineSet
97 708 m 1
 126 708 l 1
 126 0 l 1
 97 0 l 1
 97 708 l 1
491 0 m 1
 491 708 l 1
 520 708 l 1
 520 0 l 1
 491 0 l 1
112 379 m 1
 112 400 l 1
 506 400 l 1
 506 379 l 1
 112 379 l 1
EndSplineSet
EndChar

StartChar: I
Encoding: 73 73 41
Width: 226
VWidth: 980
Flags: HW
LayerCount: 2
Fore
SplineSet
102 708 m 1
 131 708 l 1
 131 0 l 1
 102 0 l 1
 102 708 l 1
EndSplineSet
EndChar

StartChar: J
Encoding: 74 74 42
Width: 473
VWidth: 980
Flags: HW
LayerCount: 2
Fore
SplineSet
360 708 m 1
 389 708 l 1
 389 213 l 2
 389 84 324 -8 202 -8 c 0
 117 -8 62 37 43 119 c 1
 55 136 l 1
 68 56 121 12 202 12 c 0
 309 12 360 98 360 213 c 2
 360 708 l 1
EndSplineSet
EndChar

StartChar: K
Encoding: 75 75 43
Width: 572
VWidth: 980
Flags: HW
LayerCount: 2
Fore
SplineSet
97 708 m 1
 126 708 l 1
 126 0 l 1
 97 0 l 1
 97 708 l 1
484 708 m 1
 513 708 l 1
 155 354 l 1
 513 0 l 1
 484 0 l 1
 126 354 l 1
 484 708 l 1
EndSplineSet
EndChar

StartChar: L
Encoding: 76 76 44
Width: 512
VWidth: 980
Flags: HW
LayerCount: 2
Fore
SplineSet
97 708 m 1
 126 708 l 1
 126 0 l 1
 97 0 l 1
 97 708 l 1
112 0 m 1
 112 22 l 1
 484 22 l 1
 484 0 l 1
 112 0 l 1
EndSplineSet
EndChar

StartChar: M
Encoding: 77 77 45
Width: 739
VWidth: 980
Flags: HW
LayerCount: 2
Fore
SplineSet
97 708 m 1
 126 708 l 1
 126 0 l 1
 97 0 l 1
 97 708 l 1
633 708 m 1
 662 708 l 1
 662 0 l 1
 633 0 l 1
 633 708 l 1
105 708 m 1
 126 708 l 1
 390 177 l 1
 369 177 l 1
 105 708 l 1
633 708 m 1
 654 708 l 1
 390 177 l 1
 369 177 l 1
 633 708 l 1
EndSplineSet
EndChar

StartChar: N
Encoding: 78 78 46
Width: 631
VWidth: 980
Flags: HW
LayerCount: 2
Fore
SplineSet
97 708 m 1
 126 708 l 1
 126 0 l 1
 97 0 l 1
 97 708 l 1
522 708 m 1
 550 708 l 1
 550 0 l 1
 522 0 l 1
 522 708 l 1
97 708 m 1
 126 708 l 1
 543 0 l 1
 522 0 l 1
 97 708 l 1
EndSplineSet
EndChar

StartChar: O
Encoding: 79 79 47
Width: 651
VWidth: 980
Flags: HW
LayerCount: 2
Fore
SplineSet
334 716 m 1
 521 716 603 560 603 354 c 0
 603 148 521 -8 334 -8 c 0
 147 -8 65 148 65 354 c 0
 65 560 147 716 334 716 c 1
 334 695 l 1
 162 695 94 546 94 354 c 0
 94 162 162 14 334 14 c 0
 506 14 574 162 574 354 c 0
 574 546 506 695 334 695 c 1
 334 716 l 1
EndSplineSet
EndChar

StartChar: P
Encoding: 80 80 48
Width: 591
VWidth: 980
Flags: HW
LayerCount: 2
Fore
SplineSet
97 708 m 1
 126 708 l 1
 126 0 l 1
 97 0 l 1
 97 708 l 1
112 708 m 1
 334 708 l 2
 463 708 542 626 542 496 c 0
 542 366 463 284 334 284 c 2
 112 284 l 1
 112 305 l 1
 334 305 l 2
 447 305 513 381 513 496 c 0
 513 611 447 687 334 687 c 2
 112 687 l 1
 112 708 l 1
EndSplineSet
EndChar

StartChar: Q
Encoding: 81 81 49
Width: 649
VWidth: 980
Flags: HW
LayerCount: 2
Fore
SplineSet
333 716 m 1
 520 716 602 560 602 355 c 0
 602 150 520 -6 333 -6 c 0
 146 -6 65 150 65 355 c 0
 65 560 146 716 333 716 c 1
 333 695 l 1
 161 695 93 546 93 355 c 0
 93 164 161 15 333 15 c 0
 505 15 573 164 573 355 c 0
 573 546 505 695 333 695 c 1
 333 716 l 1
348 2 m 1
 348 -85 390 -171 468 -171 c 2
 587 -171 l 1
 587 -192 l 1
 468 -192 l 2
 376 -192 319 -98 319 2 c 1
 348 2 l 1
EndSplineSet
EndChar

StartChar: R
Encoding: 82 82 50
Width: 591
VWidth: 980
Flags: HW
LayerCount: 2
Fore
SplineSet
97 708 m 1
 126 708 l 1
 126 0 l 1
 97 0 l 1
 97 708 l 1
112 708 m 1
 334 708 l 2
 463 708 542 626 542 496 c 0
 542 366 463 284 334 284 c 2
 112 284 l 1
 112 305 l 1
 334 305 l 2
 447 305 513 381 513 496 c 0
 513 611 447 687 334 687 c 2
 112 687 l 1
 112 708 l 1
348 294 m 1
 542 0 l 1
 513 0 l 1
 320 294 l 1
 348 294 l 1
EndSplineSet
EndChar

StartChar: S
Encoding: 83 83 51
Width: 572
VWidth: 980
Flags: HW
LayerCount: 2
Fore
SplineSet
299 716 m 0
 387 716 471 678 528 611 c 1
 516 593 l 1
 463 657 383 695 299 695 c 0
 182 695 94 647 94 540 c 0
 94 453 153 407 240 385 c 2
 353 357 l 2
 455 332 522 275 522 173 c 0
 522 50 422 -8 288 -8 c 0
 202 -8 120 31 65 98 c 1
 77 115 l 1
 128 51 206 14 288 14 c 0
 406 14 493 65 493 173 c 0
 493 261 435 310 347 332 c 2
 233 360 l 2
 132 385 65 439 65 540 c 0
 65 662 166 716 299 716 c 0
EndSplineSet
EndChar

StartChar: T
Encoding: 84 84 52
Width: 601
VWidth: 980
Flags: HW
LayerCount: 2
Fore
SplineSet
62 687 m 1
 62 708 l 1
 555 708 l 1
 555 687 l 1
 62 687 l 1
294 698 m 1
 323 698 l 1
 323 0 l 1
 294 0 l 1
 294 698 l 1
EndSplineSet
EndChar

StartChar: U
Encoding: 85 85 53
Width: 626
VWidth: 980
Flags: HW
LayerCount: 2
Fore
SplineSet
97 708 m 1
 126 708 l 1
 126 224 l 2
 126 98 198 14 321 14 c 0
 444 14 517 98 517 224 c 2
 517 708 l 1
 545 708 l 1
 545 224 l 2
 545 83 460 -8 321 -8 c 0
 182 -8 97 83 97 224 c 2
 97 708 l 1
EndSplineSet
EndChar

StartChar: V
Encoding: 86 86 54
Width: 646
VWidth: 980
Flags: HW
LayerCount: 2
Fore
SplineSet
49 708 m 1
 77 708 l 1
 343 0 l 1
 317 0 l 1
 49 708 l 1
586 708 m 1
 614 708 l 1
 346 0 l 1
 320 0 l 1
 586 708 l 1
EndSplineSet
EndChar

StartChar: W
Encoding: 87 87 55
Width: 809
VWidth: 980
Flags: HW
LayerCount: 2
Fore
SplineSet
49 708 m 1
 77 708 l 1
 174 354 l 1
 268 0 l 1
 242 0 l 1
 145 354 l 1
 49 708 l 1
245 0 m 1
 321 354 l 1
 321 354 l 1
 400 708 l 1
 426 708 l 1
 350 354 l 1
 350 354 l 1
 271 0 l 1
 245 0 l 1
403 708 m 1
 429 708 l 1
 508 354 l 1
 508 354 l 1
 585 0 l 1
 559 0 l 1
 480 354 l 1
 480 354 l 1
 403 708 l 1
562 0 m 1
 655 354 l 1
 752 708 l 1
 781 708 l 1
 684 354 l 1
 587 0 l 1
 562 0 l 1
EndSplineSet
EndChar

StartChar: X
Encoding: 88 88 56
Width: 651
VWidth: 980
Flags: HW
LayerCount: 2
Fore
SplineSet
41 708 m 1
 72 708 l 1
 348 354 l 1
 627 0 l 1
 595 0 l 1
 320 354 l 1
 41 708 l 1
599 708 m 1
 627 708 l 1
 348 354 l 1
 69 0 l 1
 41 0 l 1
 320 354 l 1
 599 708 l 1
EndSplineSet
EndChar

StartChar: Y
Encoding: 89 89 57
Width: 582
VWidth: 980
Flags: HW
LayerCount: 2
Fore
SplineSet
49 708 m 1
 77 708 l 1
 310 319 l 1
 284 319 l 1
 49 708 l 1
520 708 m 1
 548 708 l 1
 313 319 l 1
 287 319 l 1
 520 708 l 1
284 319 m 1
 313 319 l 1
 313 0 l 1
 284 0 l 1
 284 319 l 1
EndSplineSet
EndChar

StartChar: Z
Encoding: 90 90 58
Width: 591
VWidth: 980
Flags: HW
LayerCount: 2
Fore
SplineSet
97 687 m 1
 97 708 l 1
 510 708 l 1
 510 687 l 1
 97 687 l 1
97 0 m 1
 97 22 l 1
 510 22 l 1
 510 0 l 1
 97 0 l 1
497 709 m 1
 510 687 l 1
 111 -1 l 1
 97 22 l 1
 497 709 l 1
EndSplineSet
EndChar

StartChar: bracketleft
Encoding: 91 91 59
Width: 374
VWidth: 980
Flags: HW
LayerCount: 2
Fore
SplineSet
92 757 m 1
 120 757 l 1
 120 -106 l 1
 92 -106 l 1
 92 757 l 1
120 737 m 1
 120 757 l 1
 292 757 l 1
 292 737 l 1
 120 737 l 1
120 -106 m 1
 120 -86 l 1
 292 -86 l 1
 292 -106 l 1
 120 -106 l 1
EndSplineSet
EndChar

StartChar: backslash
Encoding: 92 92 60
Width: 409
VWidth: 980
Flags: HW
LayerCount: 2
Fore
SplineSet
41 716 m 1
 69 716 l 1
 379 -8 l 1
 351 -8 l 1
 41 716 l 1
EndSplineSet
EndChar

StartChar: bracketright
Encoding: 93 93 61
Width: 374
VWidth: 980
Flags: HW
LayerCount: 2
Fore
SplineSet
264 757 m 1
 292 757 l 1
 292 -106 l 1
 264 -106 l 1
 264 757 l 1
264 737 m 1
 92 737 l 1
 92 757 l 1
 264 757 l 1
 264 737 l 1
264 -106 m 1
 92 -106 l 1
 92 -86 l 1
 264 -86 l 1
 264 -106 l 1
EndSplineSet
EndChar

StartChar: asciicircum
Encoding: 94 94 62
Width: 470
VWidth: 980
Flags: HW
LayerCount: 2
Fore
SplineSet
62 646 m 1
 229 759 l 1
 253 759 l 1
 421 646 l 1
 409 630 l 1
 241 742 l 1
 241 742 l 1
 74 630 l 1
 62 646 l 1
EndSplineSet
EndChar

StartChar: underscore
Encoding: 95 95 63
Width: 523
VWidth: 980
Flags: HW
LayerCount: 2
Fore
SplineSet
97 0 m 1
 439 0 l 1
 439 -21 l 1
 97 -21 l 1
 97 0 l 1
EndSplineSet
EndChar

StartChar: grave
Encoding: 96 96 64
Width: 264
VWidth: 980
Flags: HW
LayerCount: 2
Fore
SplineSet
122 784 m 1
 150 784 l 1
 162 587 l 1
 137 587 l 1
 122 784 l 1
EndSplineSet
EndChar

StartChar: a
Encoding: 97 97 65
Width: 523
VWidth: 980
Flags: HW
HStem: -7 21<176.591 300.427> 0 21G<413.837 439> 276 24<170.14 439> 511 23<178.676 314.639>
VStem: 65 29<82.7643 208.36> 410 29<0 86 121 414.609>
LayerCount: 2
Fore
SplineSet
79 454 m 1x7c
 125 509 180 535 252 535 c 0
 382 535 439 453 439 332 c 2
 439 0 l 1
 415 0 l 1
 410 86 l 1
 410 332 l 2
 410 426 365 512 252 512 c 0
 185 512 139 491 97 439 c 1
 79 454 l 1x7c
439 300 m 1
 439 276 l 1
 238 276 l 2
 152 276 94 230 94 146 c 0
 94 62 146 14 238 14 c 0
 311 14 378 55 410 121 c 1
 410 86 l 1
 363 13 302 -8 225 -8 c 0xbc
 128 -8 65 50 65 146 c 0
 65 247 141 300 248 300 c 2
 439 300 l 1
EndSplineSet
EndChar

StartChar: b
Encoding: 98 98 66
Width: 576
VWidth: 980
Flags: HW
LayerCount: 2
Fore
SplineSet
81 716 m 1
 110 716 l 1
 110 142 l 1
 106 0 l 1
 81 0 l 1
 81 142 l 1
 81 716 l 1
100 427 m 1
 143 494 217 534 296 534 c 0
 446 534 526 422 526 263 c 0
 526 104 446 -7 296 -7 c 4
 217 -7 143 33 100 100 c 1
 110 114 l 1
 151 51 220 13 295 13 c 4
 430 13 497 118 497 263 c 0
 497 408 430 514 295 514 c 0
 220 514 151 476 110 413 c 1
 100 427 l 1
EndSplineSet
EndChar

StartChar: c
Encoding: 99 99 67
Width: 497
VWidth: 980
Flags: HW
LayerCount: 2
Fore
SplineSet
446 447 m 1
 435 432 l 1
 392 490 343 515 271 515 c 0
 144 515 94 405 94 263 c 0
 94 121 144 12 271 12 c 4
 336 12 397 43 435 95 c 1
 446 79 l 1
 404 24 340 -7 271 -7 c 4
 129 -7 65 108 65 263 c 0
 65 418 129 534 271 534 c 0
 347 534 400 508 446 447 c 1
EndSplineSet
EndChar

StartChar: d
Encoding: 100 100 68
Width: 576
VWidth: 980
Flags: W
HStem: -7 20<230.671 359.869> 0 21G<484.437 510> 514 20<230.671 359.869> 696 20G<481 510>
VStem: 65 29<158.531 367.625> 481 29<0 100 114 413 427 716>
LayerCount: 2
Fore
SplineSet
481 716 m 1x7c
 510 716 l 1
 510 142 l 1
 510 0 l 1
 485 0 l 1
 481 142 l 1
 481 716 l 1x7c
491 427 m 1
 481 413 l 1
 440 476 370 514 295 514 c 0
 160 514 94 408 94 263 c 0
 94 118 160 13 295 13 c 4
 370 13 440 51 481 114 c 1
 491 100 l 1
 448 33 374 -7 295 -7 c 4xbc
 145 -7 65 104 65 263 c 0
 65 422 145 534 295 534 c 0
 374 534 448 494 491 427 c 1
EndSplineSet
EndChar

StartChar: e
Encoding: 101 101 69
Width: 538
VWidth: 980
Flags: W
HStem: -7 22<221.813 362.409> 258 21<71 483.866> 513 21<222.685 346.758>
VStem: 71 23<166.097 367.59> 458 26<258 379.172>
LayerCount: 2
Fore
SplineSet
483 258 m 1
 458 258 l 1
 458 279 l 2
 458 412 407 513 287 513 c 0
 159 513 94 415 94 279 c 2
 94 269 l 1
 94 258 l 2
 94 117 157 15 287 15 c 4
 348 15 407 35 454 74 c 1
 467 56 l 1
 416 15 353 -7 287 -7 c 0
 138 -7 65 109 65 269 c 0
 65 424 141 534 287 534 c 0
 425 534 487 422 487 279 c 0
 487 275 487 265 483 258 c 1
71 258 m 1
 71 279 l 1
 484 279 l 1
 483 258 l 1
 71 258 l 1
EndSplineSet
EndChar

StartChar: f
Encoding: 102 102 70
Width: 414
VWidth: 980
Flags: HW
LayerCount: 2
Fore
SplineSet
181 0 m 1
 181 613 l 2
 181 692 237 737 318 737 c 0
 332 737 346 735 360 734 c 1
 360 715 l 1
 319 715 l 2
 254 715 210 677 210 613 c 2
 210 0 l 1
 181 0 l 1
49 526 m 1
 360 526 l 1
 360 505 l 1
 49 505 l 1
 49 526 l 1
EndSplineSet
EndChar

StartChar: g
Encoding: 103 103 71
Width: 541
VWidth: 980
Flags: W
HStem: -192 24<176.515 390> 19 24<148.969 418.303> 212 21<155 328.826> 503 24<368.014 515> 511 24<185.451 332.549>
VStem: 65 28<84.6511 167.816 309.938 435.949> 425 28<309.938 435.949> 469 29<-114.861 -21.2955>
LayerCount: 2
Fore
SplineSet
259 535 m 1xef
 372 535 453 479 453 373 c 0
 453 267 372 212 259 212 c 0
 146 212 65 267 65 373 c 0
 65 479 146 535 259 535 c 1
 259 511 l 1
 162 511 93 465 93 373 c 0
 93 281 162 233 259 233 c 0
 356 233 425 281 425 373 c 0
 425 465 356 511 259 511 c 1
 259 535 l 1xef
259 228 m 1
 259 212 l 1
 180 212 93 196 93 128 c 0
 93 51 179 43 238 43 c 2
 362 43 l 2
 434 43 498 5.00390625 498 -63.99609375 c 0
 498 -165.99609375 395 -192 278 -192 c 0
 173 -192 99 -164 20 -95 c 1
 38 -78 l 1
 113 -144 178 -168 278 -168 c 0
 378 -168 469 -152.99609375 469 -65.99609375 c 0
 469 -10.99609375 418 19 362 19 c 2
 238 19 l 2
 168 19 65 35 65 125 c 0
 65 215 155 228 259 228 c 1
515 527 m 1xf7
 515 503 l 1
 360 503 l 1
 360 518 373 527 389 527 c 2
 515 527 l 1xf7
EndSplineSet
EndChar

StartChar: h
Encoding: 104 104 72
Width: 542
VWidth: 980
Flags: HW
LayerCount: 2
Fore
SplineSet
97 708 m 1
 126 708 l 1
 126 0 l 1
 97 0 l 1
 97 708 l 1
116 372 m 1
 140 477 211 534 319 534 c 0
 422 534 475 456 475 347 c 2
 475 0 l 1
 447 0 l 1
 447 347 l 2
 447 442 406 514 318 514 c 0
 215 514 147 459 126 358 c 1
 116 372 l 1
EndSplineSet
EndChar

StartChar: i
Encoding: 105 105 73
Width: 295
VWidth: 980
Flags: HW
LayerCount: 2
Fore
SplineSet
65 505 m 1
 65 526 l 1
 182 526 l 1
 182 505 l 1
 65 505 l 1
168 526 m 1
 197 526 l 1
 197 0 l 1
 168 0 l 1
 168 526 l 1
200 678 m 0
 200 673 198 668 195 665 c 0
 192 662 187 660 182 660 c 0
 177 660 173 662 170 665 c 0
 167 668 164 673 164 678 c 0
 164 683 167 688 170 691 c 0
 173 694 177 696 182 696 c 0
 187 696 192 694 195 691 c 0
 198 688 200 683 200 678 c 0
EndSplineSet
EndChar

StartChar: j
Encoding: 106 106 74
Width: 265
VWidth: 980
Flags: HW
LayerCount: 2
Fore
SplineSet
134 527 m 1
 163 527 l 1
 163 2 l 2
 163 -99 168 -192 81 -192 c 2
 12 -192 l 1
 12 -171 l 1
 81 -171 l 2
 135 -171 134 -76 134 2 c 2
 134 527 l 1
167 678 m 0
 167 673 164 668 161 665 c 0
 158 662 154 660 149 660 c 0
 144 660 139 662 136 665 c 0
 133 668 131 673 131 678 c 0
 131 683 133 688 136 691 c 0
 139 694 144 696 149 696 c 0
 154 696 158 694 161 691 c 0
 164 688 167 683 167 678 c 0
EndSplineSet
EndChar

StartChar: k
Encoding: 107 107 75
Width: 502
VWidth: 980
Flags: HW
LayerCount: 2
Fore
SplineSet
97 708 m 1
 126 708 l 1
 126 0 l 1
 97 0 l 1
 97 708 l 1
362 526 m 1
 419 526 l 1
 155 263 l 1
 419 0 l 1
 362 0 l 1
 126 263 l 1
 362 526 l 1
140 253 m 1
 112 253 l 1
 112 274 l 1
 140 274 l 1
 140 253 l 1
EndSplineSet
EndChar

StartChar: l
Encoding: 108 108 76
Width: 255
VWidth: 980
Flags: HW
LayerCount: 2
Fore
SplineSet
117 716 m 1
 146 716 l 1
 146 106 l 2
 146 58 167 22 211 22 c 2
 250 22 l 1
 250 0 l 1
 211 0 l 2
 151 0 117 44 117 106 c 2
 117 716 l 1
EndSplineSet
EndChar

StartChar: m
Encoding: 109 109 77
Width: 809
VWidth: 980
Flags: HW
LayerCount: 2
Fore
SplineSet
97 526 m 1
 126 526 l 1
 126 0 l 1
 97 0 l 1
 97 526 l 1
116 434 m 1
 152 496 219 534 291 534 c 0
 358 534 403 499 419 434 c 1
 455 496 522 534 594 534 c 0
 690 534 732 453 732 347 c 2
 732 0 l 1
 704 0 l 1
 704 347 l 2
 704 440 676 514 594 514 c 0
 526 514 463 478 429 420 c 1
 429 347 l 1
 429 0 l 1
 400 0 l 1
 400 347 l 2
 400 440 373 514 291 514 c 0
 223 514 160 478 126 420 c 1
 116 434 l 1
EndSplineSet
EndChar

StartChar: n
Encoding: 110 110 78
Width: 533
VWidth: 980
Flags: HW
LayerCount: 2
Fore
SplineSet
65 526 m 1
 94 526 l 1
 94 0 l 1
 65 0 l 1
 65 526 l 1
84 434 m 1
 138 498 217 534 300 534 c 0
 406 534 465 458 465 347 c 2
 465 0 l 1
 437 0 l 1
 437 347 l 2
 437 444 390 514 299 514 c 0
 220 514 146 480 94 420 c 1
 84 434 l 1
EndSplineSet
EndChar

StartChar: o
Encoding: 111 111 79
Width: 567
VWidth: 980
Flags: HW
LayerCount: 2
Fore
SplineSet
291 534 m 1
 439 534 517 423 517 267 c 0
 517 107 441 -8 291 -8 c 0
 141 -8 65 107 65 267 c 0
 65 423 143 534 291 534 c 1
 291 514 l 1
 159 514 94 409 94 267 c 0
 94 121 157 12 291 12 c 0
 425 12 488 121 488 267 c 0
 488 409 423 514 291 514 c 1
 291 534 l 1
EndSplineSet
EndChar

StartChar: p
Encoding: 112 112 80
Width: 575
VWidth: 980
Flags: HW
LayerCount: 2
Fore
SplineSet
81 527 m 1
 107 527 l 1
 110 422 l 1
 110 -192 l 1
 81 -192 l 1
 81 527 l 1
100 428 m 1
 143 495 216 535 295 535 c 0
 445 535 525 422 525 264 c 0
 525 106 445 -6 295 -6 c 0
 214 -6 140 38 100 108 c 1
 110 122 l 1
 148 55 218 14 295 14 c 0
 430 14 496 119 496 264 c 0
 496 409 430 515 295 515 c 0
 220 515 151 477 110 414 c 1
 100 428 l 1
EndSplineSet
EndChar

StartChar: q
Encoding: 113 113 81
Width: 575
VWidth: 980
Flags: HW
LayerCount: 2
Fore
SplineSet
483 527 m 1
 509 527 l 1
 509 -192 l 1
 480 -192 l 1
 480 422 l 1
 483 527 l 1
490 428 m 1
 480 414 l 1
 439 477 370 515 295 515 c 0
 160 515 93 409 93 264 c 0
 93 119 160 14 295 14 c 0
 372 14 442 55 480 122 c 1
 490 108 l 1
 450 38 375 -6 294 -6 c 0
 144 -6 65 106 65 264 c 0
 65 422 144 535 294 535 c 0
 373 535 447 495 490 428 c 1
EndSplineSet
EndChar

StartChar: r
Encoding: 114 114 82
Width: 354
VWidth: 980
Flags: HW
LayerCount: 2
Fore
SplineSet
97 526 m 1
 126 526 l 1
 126 0 l 1
 97 0 l 1
 97 526 l 1
115 436 m 1
 193 491 250 534 346 534 c 1
 346 513 l 1
 255 513 200 472 126 420 c 1
 115 436 l 1
EndSplineSet
EndChar

StartChar: s
Encoding: 115 115 83
Width: 463
VWidth: 980
Flags: HW
LayerCount: 2
Fore
SplineSet
252 535 m 0
 317 535 381 509 428 464 c 1
 411 447 l 1
 367 490 313 514 252 514 c 0
 163 514 94 482 94 402 c 0
 94 341 129.352941176 305.411764706 199 288 c 2
 291 265 l 2
 376 244 435 210 435 128 c 0
 435 25 352 -8 235 -8 c 0
 146 -8 79 22 41 71 c 1
 60 87 l 1
 94 40 158 14 235 14 c 0
 336 14 406 40 406 128 c 0
 406 197 356 222 285 240 c 2
 193 263 l 2
 105.941176471 284.764705882 65 327 65 402 c 0
 65 497 147 535 252 535 c 0
EndSplineSet
EndChar

StartChar: t
Encoding: 116 116 84
Width: 414
VWidth: 980
Flags: HW
LayerCount: 2
Fore
SplineSet
65 506 m 1
 65 527 l 1
 360 527 l 1
 360 506 l 1
 65 506 l 1
181 687 m 5
 210 708 l 1
 210 99 l 2
 210 47 243 14 295 14 c 2
 360 14 l 1
 360 -7 l 1
 336 -8 318 -8 294 -8 c 0
 226 -8 181 38.8008705142 181 99 c 2
 181 687 l 5
EndSplineSet
EndChar

StartChar: u
Encoding: 117 117 85
Width: 533
VWidth: 980
Flags: HW
LayerCount: 2
Fore
SplineSet
453 526 m 1
 482 526 l 1
 482 0 l 1
 453 0 l 1
 453 526 l 1
65 526 m 1
 94 526 l 1
 94 179 l 2
 94 81 144 12 237 12 c 0
 332 12 418 70 453 158 c 1
 463 144 l 1
 426 52 336 -8 237 -8 c 0
 128 -8 65 67 65 179 c 2
 65 526 l 1
EndSplineSet
EndChar

StartChar: v
Encoding: 118 118 86
Width: 547
VWidth: 980
Flags: HW
LayerCount: 2
Fore
SplineSet
49 526 m 1
 77 526 l 1
 292 0 l 1
 266 0 l 1
 49 526 l 1
484 526 m 1
 513 526 l 1
 295 0 l 1
 269 0 l 1
 484 526 l 1
EndSplineSet
EndChar

StartChar: w
Encoding: 119 119 87
Width: 739
VWidth: 980
Flags: HW
LayerCount: 2
Fore
SplineSet
49 526 m 1
 77 526 l 1
 164 263 l 1
 249 0 l 1
 223 0 l 1
 136 263 l 1
 49 526 l 1
226 0 m 1
 294 263 l 1
 294 263 l 1
 365 526 l 1
 391 526 l 1
 323 263 l 1
 323 263 l 1
 251 0 l 1
 226 0 l 1
368 526 m 1
 394 526 l 1
 465 263 l 1
 465 263 l 1
 533 0 l 1
 507 0 l 1
 436 263 l 1
 436 263 l 1
 368 526 l 1
510 0 m 1
 594 263 l 1
 681 526 l 1
 710 526 l 1
 623 263 l 1
 536 0 l 1
 510 0 l 1
EndSplineSet
EndChar

StartChar: x
Encoding: 120 120 88
Width: 507
VWidth: 980
Flags: HW
LayerCount: 2
Fore
SplineSet
41 526 m 1
 72 526 l 1
 275 263 l 1
 481 0 l 1
 449 0 l 1
 246 263 l 1
 41 526 l 1
449 526 m 1
 481 526 l 1
 275 263 l 1
 72 0 l 1
 41 0 l 1
 246 263 l 1
 449 526 l 1
EndSplineSet
EndChar

StartChar: y
Encoding: 121 121 89
Width: 546
VWidth: 980
Flags: HW
LayerCount: 2
Fore
SplineSet
41 527 m 1
 69 527 l 1
 182 264 l 1
 292 2 l 1
 266 2 l 1
 153 264 l 1
 41 527 l 1
491 527 m 1
 520 527 l 1
 407 264 l 1
 295 2 l 1
 269 2 l 1
 379 264 l 1
 491 527 l 1
266 2 m 1
 295 2 l 1
 211 -192 l 1
 183 -192 l 1
 266 2 l 1
EndSplineSet
EndChar

StartChar: z
Encoding: 122 122 90
Width: 512
VWidth: 980
Flags: HW
LayerCount: 2
Fore
SplineSet
97 505 m 1
 97 526 l 1
 429 526 l 1
 429 505 l 1
 97 505 l 1
97 0 m 1
 97 22 l 1
 429 22 l 1
 429 0 l 1
 97 0 l 1
415 527 m 1
 429 505 l 1
 111 -0 l 1
 97 22 l 1
 415 527 l 1
EndSplineSet
EndChar

StartChar: braceleft
Encoding: 123 123 91
Width: 327
VWidth: 980
Flags: HW
LayerCount: 2
Fore
SplineSet
274 757 m 1
 274 737 l 1
 250 737 236 723 236 699 c 2
 236 374 l 2
 236 337 209 318 170 318 c 1
 170 336 l 1
 194 336 209 350 209 374 c 2
 209 699 l 2
 209 736 235 757 274 757 c 1
170 334 m 1
 209 334 236 314 236 277 c 2
 236 -47 l 2
 236 -71 250 -86 274 -86 c 1
 274 -106 l 1
 235 -106 209 -84 209 -47 c 2
 209 277 l 2
 209 301 194 316 170 316 c 1
 170 334 l 1
EndSplineSet
EndChar

StartChar: bar
Encoding: 124 124 92
Width: 336
VWidth: 980
Flags: HW
LayerCount: 2
Fore
SplineSet
159 784 m 1
 187 784 l 1
 187 -103 l 1
 159 -103 l 1
 159 784 l 1
EndSplineSet
EndChar

StartChar: braceright
Encoding: 125 125 93
Width: 327
VWidth: 980
Flags: HW
LayerCount: 2
Fore
SplineSet
62 739 m 1
 62 759 l 1
 101 759 127 737 127 700 c 2
 127 375 l 2
 127 351 142 337 166 337 c 1
 166 317 l 1
 127 317 100 338 100 375 c 2
 100 700 l 2
 100 724 86 739 62 739 c 1
166 317 m 1
 142 317 127 302 127 278 c 2
 127 -47 l 2
 127 -84 101 -106 62 -106 c 1
 62 -85 l 1
 86 -85 100 -71 100 -47 c 2
 100 278 l 2
 100 315 127 335 166 335 c 1
 166 317 l 1
EndSplineSet
EndChar

StartChar: asciitilde
Encoding: 126 126 94
Width: 616
VWidth: 980
Flags: HW
LayerCount: 2
Fore
SplineSet
65 211 m 1
 65 273 125 316 191 316 c 0
 244 316 280 303 322 272 c 1
 311 254 l 1
 273 283 239 295 191 295 c 0
 137 295 86 262 86 211 c 1
 65 211 l 1
567 316 m 1
 567 254 508 211 442 211 c 0
 389 211 353 223 311 254 c 1
 322 272 l 1
 360 243 394 232 442 232 c 0
 496 232 546 265 546 316 c 1
 567 316 l 1
EndSplineSet
EndChar
